<?xml version="1.0" standalone="no"?>
<!DOCTYPE svg PUBLIC "-//W3C//DTD SVG 20010904//EN"
 "http://www.w3.org/TR/2001/REC-SVG-20010904/DTD/svg10.dtd">
<svg version="1.0" xmlns="http://www.w3.org/2000/svg"
 width="502.000000pt" height="361.000000pt" viewBox="0 0 502.000000 361.000000"
 preserveAspectRatio="xMidYMid meet">

<g transform="translate(0.000000,361.000000) scale(0.100000,-0.100000)"
fill="#000000" stroke="none">
<path d="M1098 2413 c-857 -859 -849 -850 -833 -921 9 -44 41 -90 76 -107 43
-23 112 -21 151 4 18 11 345 335 726 720 382 386 699 701 706 701 6 0 56 -45
111 -100 l99 -100 -511 -512 c-455 -457 -512 -517 -519 -551 -20 -113 77 -201
193 -173 19 5 188 167 533 512 278 277 510 504 515 504 6 0 240 -229 520 -510
l510 -510 200 0 200 0 -615 615 -615 615 105 105 c58 58 108 105 113 105 4 0
333 -324 730 -720 l722 -720 200 0 200 0 -822 822 c-453 452 -823 825 -823
827 0 11 -205 211 -216 211 -7 0 -101 -92 -209 -205 -109 -113 -203 -205 -210
-205 -7 0 -101 92 -210 205 -108 113 -200 205 -204 205 -3 0 -374 -368 -823
-817z"/>
<path d="M260 879 l0 -361 188 4 c185 3 188 3 252 34 87 41 130 80 171 156 32
60 34 68 34 163 0 87 -3 107 -26 156 -49 103 -147 176 -268 199 -29 5 -121 10
-202 10 l-149 0 0 -361z m349 235 c62 -18 127 -73 152 -129 27 -59 25 -157 -5
-221 -45 -96 -123 -134 -277 -134 l-99 0 0 243 c0 134 3 247 7 250 12 13 170
7 222 -9z"/>
<path d="M1260 1226 c-238 -53 -357 -307 -242 -519 129 -240 510 -249 650 -17
44 74 55 120 50 215 -3 67 -10 90 -38 143 -50 94 -136 157 -248 181 -65 14
-101 13 -172 -3z m172 -112 c95 -32 161 -130 162 -239 0 -220 -260 -329 -416
-174 -70 70 -92 158 -64 253 42 138 180 208 318 160z"/>
<path d="M2080 1229 c-105 -21 -207 -97 -259 -194 -23 -45 -26 -61 -26 -155 0
-97 2 -110 30 -163 36 -73 108 -139 183 -169 81 -32 223 -32 304 0 153 61 248
229 219 387 -39 213 -230 337 -451 294z m204 -133 c76 -44 126 -133 126 -222
0 -88 -71 -195 -152 -229 -114 -47 -258 7 -314 118 -69 134 -5 302 133 353 57
22 152 12 207 -20z"/>
<path d="M2600 881 l0 -361 60 0 60 0 0 125 0 125 83 0 82 -1 84 -120 c46 -67
89 -123 96 -125 7 -3 40 -4 74 -2 l62 3 -90 127 c-50 70 -91 131 -91 135 0 5
15 14 33 21 44 16 103 76 118 119 6 19 9 65 7 103 -5 90 -35 137 -115 177 -57
28 -61 28 -260 32 l-203 3 0 -361z m401 223 c23 -14 39 -33 48 -61 22 -61 1
-110 -59 -140 -38 -20 -60 -23 -157 -23 l-113 0 0 126 0 127 124 -5 c99 -4
131 -9 157 -24z"/>
<path d="M3455 943 c-71 -163 -142 -325 -157 -360 l-27 -63 62 0 63 0 35 82
35 83 175 3 175 2 34 -85 35 -85 63 0 c59 0 63 1 57 20 -4 11 -73 172 -155
358 l-149 337 -58 3 -58 2 -130 -297z m248 5 c32 -73 57 -136 57 -140 0 -5
-54 -8 -121 -8 -111 0 -121 1 -115 18 24 64 112 262 116 262 4 0 32 -60 63
-132z"/>
<path d="M4080 881 l0 -361 60 0 60 0 0 114 0 114 118 4 c137 5 201 27 256 88
45 50 59 97 54 180 -5 91 -39 142 -123 185 -58 30 -61 30 -242 34 l-183 3 0
-361z m325 238 c91 -23 132 -117 83 -189 -35 -52 -69 -64 -185 -68 l-103 -4 0
136 0 136 81 0 c44 0 100 -5 124 -11z"/>
</g>
</svg>
