<svg width="136" height="41" viewBox="0 0 136 41" fill="none" xmlns="http://www.w3.org/2000/svg">
<path d="M45.104 31L42.848 14.92V14.704H46.856L48.44 26.944L55.16 14.704H59.6V14.92L50.048 31H45.104ZM63.3711 31.24C61.8671 31.24 60.6911 30.736 59.8431 29.728C58.9951 28.704 58.5711 27.392 58.5711 25.792C58.5711 23.664 59.1951 21.808 60.4431 20.224C61.7071 18.64 63.3151 17.848 65.2671 17.848C67.0911 17.848 68.3071 18.576 68.9151 20.032L69.3231 18.136H73.1151L70.4031 31H66.6111L66.9231 29.536C66.0751 30.672 64.8911 31.24 63.3711 31.24ZM64.7391 27.904C65.7951 27.904 66.6271 27.504 67.2351 26.704C67.8591 25.888 68.1711 24.904 68.1711 23.752C68.1711 23 67.9631 22.392 67.5471 21.928C67.1311 21.464 66.5631 21.232 65.8431 21.232C64.8031 21.232 63.9711 21.64 63.3471 22.456C62.7391 23.256 62.4351 24.232 62.4351 25.384C62.4351 26.136 62.6351 26.744 63.0351 27.208C63.4511 27.672 64.0191 27.904 64.7391 27.904ZM79.7367 31.24C78.2327 31.24 77.0567 30.736 76.2087 29.728C75.3607 28.704 74.9367 27.392 74.9367 25.792C74.9367 23.664 75.5607 21.808 76.8087 20.224C78.0727 18.64 79.6807 17.848 81.6327 17.848C83.4567 17.848 84.6727 18.576 85.2807 20.032L85.6887 18.136H89.4807L86.7687 31H82.9767L83.2887 29.536C82.4407 30.672 81.2567 31.24 79.7367 31.24ZM81.1047 27.904C82.1607 27.904 82.9927 27.504 83.6007 26.704C84.2247 25.888 84.5367 24.904 84.5367 23.752C84.5367 23 84.3287 22.392 83.9127 21.928C83.4967 21.464 82.9287 21.232 82.2087 21.232C81.1687 21.232 80.3367 21.64 79.7127 22.456C79.1047 23.256 78.8007 24.232 78.8007 25.384C78.8007 26.136 79.0007 26.744 79.4007 27.208C79.8167 27.672 80.3847 27.904 81.1047 27.904ZM90.6543 31L94.2303 14.128H98.0223L96.8223 19.72C97.7503 18.44 99.1183 17.8 100.926 17.8C102.014 17.8 102.87 18.128 103.494 18.784C104.134 19.44 104.454 20.28 104.454 21.304C104.454 21.72 104.414 22.088 104.334 22.408L102.534 31H98.7423L100.35 23.416C100.414 23 100.446 22.712 100.446 22.552C100.446 21.608 99.9423 21.136 98.9343 21.136C98.1983 21.136 97.5583 21.384 97.0143 21.88C96.4703 22.376 96.1183 23.008 95.9583 23.776L94.4463 31H90.6543ZM111.812 31.24C110.308 31.24 109.132 30.736 108.284 29.728C107.436 28.704 107.012 27.392 107.012 25.792C107.012 23.664 107.636 21.808 108.884 20.224C110.148 18.64 111.756 17.848 113.708 17.848C115.532 17.848 116.748 18.576 117.356 20.032L117.764 18.136H121.556L118.844 31H115.052L115.364 29.536C114.516 30.672 113.332 31.24 111.812 31.24ZM113.18 27.904C114.236 27.904 115.068 27.504 115.676 26.704C116.3 25.888 116.612 24.904 116.612 23.752C116.612 23 116.404 22.392 115.988 21.928C115.572 21.464 115.004 21.232 114.284 21.232C113.244 21.232 112.412 21.64 111.788 22.456C111.18 23.256 110.876 24.232 110.876 25.384C110.876 26.136 111.076 26.744 111.476 27.208C111.892 27.672 112.46 27.904 113.18 27.904ZM128.921 31.36C127.273 31.36 125.929 30.864 124.889 29.872C123.849 28.864 123.329 27.544 123.329 25.912C123.329 23.544 124.065 21.6 125.537 20.08C127.009 18.56 128.913 17.8 131.249 17.8C132.913 17.8 134.241 18.16 135.233 18.88L134.513 22.264H134.297C133.545 21.576 132.497 21.232 131.153 21.232C129.953 21.232 128.985 21.608 128.249 22.36C127.529 23.112 127.169 24.088 127.169 25.288C127.169 26.136 127.433 26.784 127.961 27.232C128.489 27.68 129.209 27.904 130.121 27.904C131.321 27.904 132.385 27.584 133.313 26.944H133.529L132.761 30.4C131.737 31.04 130.457 31.36 128.921 31.36Z" fill="#4E5B7C"/>
<path fill-rule="evenodd" clip-rule="evenodd" d="M16.854 2.15458C16.2369 0.578443 14.063 0.433691 13.2424 1.9141L10.4622 6.92972C10.1733 7.45085 10.1319 8.07364 10.3491 8.62847L15.2122 21.0498L28.3232 18.5917C28.9088 18.4819 29.415 18.1167 29.7038 17.5955L32.484 12.5799C33.3047 11.0995 32.0299 9.33262 30.3663 9.64454L20.5099 11.4925L16.854 2.15458Z" fill="#3EA0FF"/>
<path fill-rule="evenodd" clip-rule="evenodd" d="M15.6768 22.455L28.7877 19.9968L33.6508 32.4182C33.8681 32.973 33.8266 33.5958 33.5377 34.1169L30.7575 39.1325C29.9369 40.6129 27.763 40.4682 27.1459 38.892L23.49 29.5541L13.6337 31.4021C11.9701 31.714 10.6953 29.9471 11.5159 28.4667L14.2961 23.4511C14.585 22.93 15.0911 22.5648 15.6768 22.455Z" fill="#3EA0FF"/>
</svg>
